<svg width="319" height="60" viewBox="0 0 319 60" fill="none" xmlns="http://www.w3.org/2000/svg">
<path d="M0 46H2.048V44.848C2.048 44.2933 2.176 43.952 2.432 43.824C2.73067 43.696 3.05067 43.6107 3.392 43.568C3.47733 43.568 3.54133 43.568 3.584 43.568C3.66933 43.568 3.75467 43.5467 3.84 43.504C4.30933 43.4613 4.71467 43.248 5.056 42.864C5.44 42.48 5.632 41.6267 5.632 40.304V6.704C5.632 5.424 5.44 4.592 5.056 4.208C4.71467 3.824 4.33067 3.61066 3.904 3.568C3.81867 3.52533 3.73333 3.504 3.648 3.504C3.60533 3.504 3.54133 3.504 3.456 3.504C3.11467 3.46133 2.816 3.376 2.56 3.248C2.304 3.12 2.176 2.75733 2.176 2.16V0.943996H28.032C28.3307 0.986665 28.6293 1.008 28.928 1.008C29.2267 0.965331 29.5253 0.922663 29.824 0.879997C30.2507 0.794665 30.6773 0.687998 31.104 0.559998C31.5733 0.431997 32 0.282664 32.384 0.112L34.944 0.0479965V11.184H32.384H31.104C30.2933 11.2267 29.7173 11.0133 29.376 10.544C29.0773 10.0747 28.8213 9.52 28.608 8.88C28.5653 8.66666 28.5013 8.45333 28.416 8.24C28.3307 8.02666 28.2453 7.81333 28.16 7.6C27.8187 6.704 27.2 5.872 26.304 5.104C25.408 4.336 23.808 3.952 21.504 3.952L14.72 3.888V21.168H17.152C18.8587 21.2107 19.968 21.0187 20.48 20.592C20.992 20.1227 21.3333 19.6107 21.504 19.056C21.504 18.9707 21.504 18.8853 21.504 18.8C21.5467 18.7147 21.568 18.6507 21.568 18.608C21.696 18.1387 21.8667 17.7333 22.08 17.392C22.2933 17.0507 22.8267 16.88 23.68 16.88L26.24 16.816H27.392V28.592H24.832H23.68C22.784 28.6347 22.1867 28.464 21.888 28.08C21.632 27.696 21.4187 27.248 21.248 26.736C21.248 26.6507 21.2267 26.5867 21.184 26.544C21.184 26.4587 21.1627 26.3947 21.12 26.352C20.9493 25.7547 20.608 25.2213 20.096 24.752C19.6267 24.2827 18.6453 24.048 17.152 24.048L14.72 23.984V43.056H22.912C25.9413 43.0987 27.9893 42.672 29.056 41.776C30.1227 40.8373 30.8267 39.8133 31.168 38.704C31.2533 38.448 31.3173 38.192 31.36 37.936C31.4027 37.6373 31.4453 37.36 31.488 37.104C31.6587 36.2933 31.872 35.632 32.128 35.12C32.4267 34.5653 33.024 34.288 33.92 34.288L36.48 34.224H37.632V46H35.072H0ZM53.1395 47.024C52.4995 47.024 51.7102 46.96 50.7715 46.832C49.8328 46.7467 48.8728 46.576 47.8915 46.32C46.2275 45.936 44.6915 45.3173 43.2835 44.464C41.9182 43.568 41.2355 42.352 41.2355 40.816C41.2355 39.792 41.6195 38.9813 42.3875 38.384C43.1555 37.7867 44.0088 37.488 44.9475 37.488L47.5075 37.424C47.6782 37.4667 47.8488 37.5093 48.0195 37.552C48.1902 37.552 48.3395 37.5733 48.4675 37.616C49.1928 37.744 49.8542 38.0427 50.4515 38.512C51.0488 38.9813 51.3475 39.5787 51.3475 40.304C51.3475 40.432 51.3262 40.5813 51.2835 40.752C51.2408 40.88 51.1982 41.008 51.1555 41.136C51.1128 41.264 51.0702 41.4133 51.0275 41.584C50.9848 41.712 50.9635 41.84 50.9635 41.968C50.9635 42.6933 51.2195 43.2267 51.7315 43.568C52.2862 43.8667 52.8835 44.0587 53.5235 44.144C53.6088 44.144 53.6728 44.1653 53.7155 44.208C53.8008 44.208 53.8862 44.208 53.9715 44.208C54.0568 44.208 54.1422 44.208 54.2275 44.208C54.3128 44.1653 54.3982 44.144 54.4835 44.144C55.8915 43.9307 57.1928 43.4187 58.3875 42.608C59.5822 41.7973 60.1795 40.6453 60.1795 39.152C60.1795 37.36 59.4328 36.0587 57.9395 35.248C56.4462 34.3947 54.7395 33.648 52.8195 33.008C52.6062 32.9227 52.3715 32.8373 52.1155 32.752C51.9022 32.6667 51.6675 32.5813 51.4115 32.496C49.2355 31.7707 47.2302 30.832 45.3955 29.68C43.5608 28.4853 42.6435 26.5227 42.6435 23.792C42.6435 21.3173 43.5822 19.3333 45.4595 17.84C47.3795 16.3467 49.4915 15.344 51.7955 14.832C52.3928 14.704 52.9902 14.6187 53.5875 14.576C54.1848 14.4907 54.7608 14.448 55.3155 14.448L57.8755 14.384C58.3875 14.4267 58.9635 14.4907 59.6035 14.576C60.2862 14.6187 60.9902 14.7253 61.7155 14.896C63.1235 15.1947 64.4035 15.7493 65.5555 16.56C66.7502 17.328 67.3475 18.416 67.3475 19.824C67.3475 20.848 66.9635 21.6373 66.1955 22.192C65.4702 22.7467 64.6168 23.024 63.6355 23.024L61.0755 22.96C60.9048 23.0027 60.7342 23.024 60.5635 23.024C60.4355 22.9813 60.2862 22.9387 60.1155 22.896C59.4755 22.768 58.8782 22.4907 58.3235 22.064C57.7688 21.5947 57.4915 20.976 57.4915 20.208C57.4915 20.08 57.4915 19.9733 57.4915 19.888C57.5342 19.76 57.5555 19.632 57.5555 19.504C57.5555 19.376 57.5555 19.2693 57.5555 19.184C57.5982 19.056 57.6195 18.928 57.6195 18.8C57.6195 18.3307 57.4062 17.9893 56.9795 17.776C56.5955 17.52 56.1475 17.3493 55.6355 17.264C55.5502 17.264 55.4648 17.2853 55.3795 17.328C55.2942 17.328 55.2088 17.3493 55.1235 17.392C54.1422 17.648 53.2248 18.1387 52.3715 18.864C51.5182 19.5893 51.0915 20.5067 51.0915 21.616C51.0915 23.2373 51.7955 24.4533 53.2035 25.264C54.6115 26.032 56.2755 26.7147 58.1955 27.312C58.4942 27.44 58.7928 27.5467 59.0915 27.632C59.3902 27.7173 59.6888 27.824 59.9875 27.952C62.2062 28.6773 64.2328 29.6587 66.0675 30.896C67.9448 32.0907 68.8835 34.0747 68.8835 36.848C68.8835 39.8347 67.7742 42.16 65.5555 43.824C63.3368 45.4453 60.9048 46.448 58.2595 46.832C57.8328 46.9173 57.4062 46.96 56.9795 46.96C56.5528 47.0027 56.1262 47.024 55.6995 47.024H53.1395ZM73.3425 18.864V17.328C73.3425 16.816 73.5132 16.4747 73.8545 16.304C74.1958 16.0907 74.6012 15.92 75.0705 15.792C75.1558 15.792 75.2412 15.792 75.3265 15.792C75.4118 15.7493 75.4972 15.7067 75.5825 15.664C76.1372 15.536 76.6492 15.28 77.1185 14.896C77.5878 14.4693 77.8225 13.68 77.8225 12.528V8.24C77.8225 7.42933 77.9932 6.93866 78.3345 6.768C78.6758 6.55466 79.1878 6.42666 79.8705 6.384L83.9665 6.064H86.5265V15.408H94.0785V18.864H86.5265V37.808C86.5265 39.216 86.7185 40.4533 87.1025 41.52C87.4865 42.544 88.3398 43.184 89.6625 43.44C89.7478 43.44 89.8332 43.44 89.9185 43.44C90.0038 43.3973 90.0678 43.3547 90.1105 43.312C90.3665 43.2267 90.6012 43.1413 90.8145 43.056C91.0705 42.928 91.3478 42.7787 91.6465 42.608L92.1585 42.288H94.7185L95.8705 44.336C95.2305 44.8907 94.4838 45.36 93.6305 45.744C92.7772 46.0853 91.8812 46.384 90.9425 46.64C90.4732 46.768 89.9825 46.8533 89.4705 46.896C89.0012 46.9813 88.5318 47.024 88.0625 47.024H85.5025C83.0705 47.024 81.2998 46.4693 80.1905 45.36C79.0812 44.2507 78.3772 43.0133 78.0785 41.648C77.9932 41.264 77.9292 40.88 77.8865 40.496C77.8438 40.112 77.8225 39.7493 77.8225 39.408V18.864H73.3425ZM118.738 35.184L122.642 25.904C122.727 25.6907 122.855 25.392 123.026 25.008C123.196 24.624 123.367 24.2187 123.538 23.792C123.58 23.6213 123.623 23.472 123.666 23.344C123.708 23.1733 123.772 23.024 123.858 22.896C124.028 22.3413 124.178 21.808 124.306 21.296C124.476 20.7413 124.562 20.2933 124.562 19.952C124.562 19.2693 124.391 18.8427 124.05 18.672C123.708 18.4587 123.324 18.288 122.898 18.16C122.898 18.16 122.876 18.16 122.834 18.16C122.407 18.0747 122.023 17.9467 121.682 17.776C121.383 17.6053 121.234 17.2213 121.234 16.624V15.408H123.794H135.314V16.56C135.314 17.1573 135.228 17.52 135.058 17.648C134.93 17.776 134.738 17.8613 134.482 17.904C134.055 17.9893 133.543 18.2027 132.946 18.544C132.348 18.8853 131.687 19.8667 130.962 21.488L119.058 48.944C117.863 51.7173 116.391 54.1707 114.642 56.304C112.892 58.48 110.311 59.568 106.898 59.568H104.338C104.124 59.568 103.89 59.5467 103.634 59.504C103.42 59.504 103.186 59.4827 102.93 59.44C101.991 59.2267 101.138 58.8213 100.37 58.224C99.6015 57.6267 99.2175 56.7947 99.2175 55.728C99.2175 54.704 99.5802 53.8933 100.306 53.296C101.031 52.6987 101.863 52.4 102.802 52.4H105.362C106.428 52.4 107.175 52.5493 107.602 52.848C108.028 53.1893 108.327 53.552 108.498 53.936C108.54 54.064 108.562 54.1707 108.562 54.256C108.604 54.384 108.647 54.4907 108.69 54.576C108.69 54.6613 108.69 54.7253 108.69 54.768C108.732 54.8533 108.775 54.9173 108.818 54.96C109.5 54.4907 110.119 53.8293 110.674 52.976C111.271 52.1227 111.804 51.2267 112.274 50.288C112.7 49.4773 113.063 48.688 113.362 47.92C113.703 47.152 113.98 46.512 114.194 46L102.93 21.424C102.119 19.8027 101.372 18.8427 100.69 18.544C100.05 18.2027 99.4948 18.0107 99.0255 17.968C98.7268 17.9253 98.4922 17.84 98.3215 17.712C98.1508 17.584 98.0655 17.2213 98.0655 16.624V15.408H100.626H115.218V16.56C115.218 17.2 115.026 17.6267 114.642 17.84C114.3 18.0107 113.895 18.1387 113.426 18.224C113.383 18.224 113.34 18.224 113.298 18.224C113.298 18.224 113.276 18.2453 113.234 18.288C112.807 18.3307 112.423 18.4373 112.082 18.608C111.783 18.736 111.634 19.0133 111.634 19.44C111.634 19.6107 111.676 19.824 111.762 20.08C111.847 20.2933 111.954 20.528 112.082 20.784C112.082 20.8267 112.082 20.8907 112.082 20.976C112.124 21.0187 112.167 21.0613 112.21 21.104C112.295 21.3173 112.38 21.5093 112.466 21.68C112.551 21.8507 112.615 22 112.658 22.128L118.738 35.184Z" fill="#D66939"/>
<path d="M170.658 46H165.355V27.3086H144.73V46H139.486V6.36133H144.73V22.6211H165.355V6.36133H170.658V46ZM196.674 5.6582C199.428 5.6582 201.957 6.15625 204.262 7.15234C206.586 8.12891 208.588 9.51563 210.268 11.3125C211.947 13.0898 213.256 15.2383 214.193 17.7578C215.15 20.2773 215.629 23.0703 215.629 26.1367C215.629 29.1836 215.16 31.9668 214.223 34.4863C213.285 37.0059 211.977 39.1738 210.297 40.9902C208.637 42.7871 206.645 44.1934 204.32 45.209C201.996 46.2051 199.447 46.7031 196.674 46.7031C193.9 46.7031 191.352 46.2051 189.027 45.209C186.703 44.2129 184.701 42.8164 183.021 41.0195C181.342 39.2227 180.033 37.0645 179.096 34.5449C178.158 32.0059 177.689 29.2031 177.689 26.1367C177.689 23.0508 178.158 20.248 179.096 17.7285C180.053 15.209 181.371 13.0605 183.051 11.2832C184.75 9.48633 186.762 8.09961 189.086 7.12305C191.41 6.14648 193.939 5.6582 196.674 5.6582ZM196.645 42.1914C198.617 42.1914 200.434 41.8301 202.094 41.1074C203.754 40.3848 205.18 39.3398 206.371 37.9727C207.582 36.5859 208.52 34.8965 209.184 32.9043C209.867 30.9121 210.209 28.6562 210.209 26.1367C210.209 23.6172 209.867 21.3711 209.184 19.3984C208.52 17.4062 207.582 15.7363 206.371 14.3887C205.18 13.0215 203.764 11.9863 202.123 11.2832C200.482 10.5605 198.695 10.1992 196.762 10.1992C194.789 10.1992 192.963 10.5605 191.283 11.2832C189.623 12.0059 188.188 13.0508 186.977 14.418C185.766 15.7852 184.818 17.4551 184.135 19.4277C183.471 21.4004 183.139 23.6367 183.139 26.1367C183.139 28.6562 183.471 30.9121 184.135 32.9043C184.799 34.8965 185.727 36.5859 186.918 37.9727C188.129 39.3398 189.555 40.3848 191.195 41.1074C192.855 41.8301 194.672 42.1914 196.645 42.1914ZM250.844 11.0781H237.719V46H232.475V11.0781H219.438V6.36133H250.844V11.0781ZM286.088 46H256.498V6.36133H285.209V11.0781H261.742V23.1191H283.656V27.8359H261.742V41.2832H286.088V46ZM318.021 46H293.471V6.36133H298.715V41.2832H318.021V46Z" fill="white"/>
<path d="M0 52.72H135.057V55.92H0V52.72Z" fill="#D66939"/>
</svg>
